<svg width="1200" height="1200" viewBox="0 0 1200 1200" xmlns="http://www.w3.org/2000/svg"><defs><pattern id="satori_pattern_id_0" x="0" y="0" width="1" height="1" patternUnits="objectBoundingBox"><linearGradient id="satori_biid_0" x1="0" y1="0" x2="0" y2="1"><stop offset="0%" stop-color="#dbf4ff"/><stop offset="100%" stop-color="#fff1f1"/></linearGradient><rect x="0" y="0" width="1200" height="1200" fill="url(#satori_biid_0)"/></pattern></defs><mask id="satori_om-id"><rect x="0" y="0" width="1200" height="1200" fill="#fff"/></mask><rect x="0" y="0" width="1200" height="1200" fill="white"/><rect x="0" y="0" width="1200" height="1200" fill="url(#satori_pattern_id_0)"/><defs><clipPath id="satori_bc-id-0"><rect x="40" y="40" width="1120" height="47"/></clipPath></defs><mask id="satori_om-id-0"><rect x="40" y="40" width="1120" height="46" fill="#fff"/><path width="1120" height="47" fill="none" stroke="#000" stroke-width="2" d="M1160,87 A0,0 0 0 1 1160,87 h-1120 A0,0 0 0 1 40,87"/></mask><path width="1120" height="47" clip-path="url(#satori_bc-id-0)" fill="none" stroke="black" stroke-width="2" d="M1160,87 A0,0 0 0 1 1160,87 h-1120 A0,0 0 0 1 40,87"/><mask id="satori_om-id-0-0"><rect x="40" y="40" width="289" height="36" fill="#fff"/></mask><path fill="black" d="M46.5 69.1L41.9 69.1L41.9 47.2L56.3 47.2L56.3 51.0L46.5 51.0L46.5 56.2L55.4 56.2L55.4 60.0L46.5 60.0L46.5 69.1ZM66.0 52.2L60.5 69.1L55.5 69.1L63.1 47.2L69.0 47.2L76.5 69.1L71.6 69.1L66.1 52.2L66.0 52.2ZM60.2 64.1L60.2 60.5L71.8 60.5L71.8 64.1L60.2 64.1ZM83.8 69.1L79.2 69.1L79.2 47.2L87.8 47.2Q90.2 47.2 92.0 48.1Q93.7 49.0 94.7 50.6Q95.6 52.2 95.6 54.4L95.6 54.4Q95.6 56.5 94.6 58.1Q93.7 59.7 91.9 60.5Q90.2 61.3 87.6 61.3L87.6 61.3L81.9 61.3L81.9 57.6L86.9 57.6Q88.2 57.6 89.1 57.3Q90.0 56.9 90.4 56.2Q90.8 55.4 90.8 54.4L90.8 54.4Q90.8 53.3 90.4 52.5Q90.0 51.8 89.1 51.4Q88.2 51.0 86.9 51.0L86.9 51.0L83.8 51.0L83.8 69.1ZM86.0 59.1L90.9 59.1L96.4 69.1L91.3 69.1L86.0 59.1ZM118.1 54.9L118.1 54.9L113.4 54.9Q113.3 54.0 112.9 53.3Q112.5 52.6 111.9 52.1Q111.3 51.6 110.5 51.3Q109.7 51.0 108.7 51.0L108.7 51.0Q107.0 51.0 105.8 51.9Q104.5 52.7 103.8 54.3Q103.1 55.9 103.1 58.2L103.1 58.2Q103.1 60.5 103.8 62.1Q104.5 63.7 105.8 64.5Q107.0 65.3 108.7 65.3L108.7 65.3Q109.6 65.3 110.4 65.0Q111.2 64.8 111.8 64.3Q112.4 63.8 112.9 63.2Q113.3 62.5 113.4 61.6L113.4 61.6L118.1 61.6Q117.9 63.1 117.2 64.5Q116.5 65.9 115.3 67.0Q114.1 68.1 112.4 68.7Q110.7 69.4 108.6 69.4L108.6 69.4Q105.7 69.4 103.4 68.0Q101.1 66.7 99.8 64.2Q98.5 61.7 98.5 58.2L98.5 58.2Q98.5 54.6 99.8 52.1Q101.1 49.6 103.4 48.3Q105.7 46.9 108.6 46.9L108.6 46.9Q110.5 46.9 112.1 47.5Q113.8 48.0 115.0 49.0Q116.3 50.0 117.1 51.5Q117.9 53.0 118.1 54.9ZM130.2 52.2L124.8 69.1L119.8 69.1L127.3 47.2L133.3 47.2L140.8 69.1L135.9 69.1L130.4 52.2L130.2 52.2ZM124.4 64.1L124.4 60.5L136.1 60.5L136.1 64.1L124.4 64.1ZM159.2 53.5L154.8 53.5Q154.6 52.2 153.7 51.5Q152.7 50.8 151.0 50.8L151.0 50.8Q149.9 50.8 149.1 51.1Q148.3 51.4 147.9 52.0Q147.5 52.5 147.5 53.2L147.5 53.2Q147.5 53.8 147.8 54.3Q148.0 54.7 148.5 55.0Q149.0 55.3 149.6 55.6Q150.3 55.8 151.0 55.9L151.0 55.9L152.9 56.4Q154.4 56.7 155.6 57.3Q156.8 57.8 157.6 58.6Q158.5 59.4 159.0 60.4Q159.5 61.5 159.5 62.8L159.5 62.8Q159.5 64.8 158.5 66.3Q157.5 67.8 155.6 68.6Q153.7 69.4 151.0 69.4L151.0 69.4Q148.4 69.4 146.4 68.6Q144.5 67.8 143.4 66.2Q142.3 64.6 142.2 62.2L142.2 62.2L146.7 62.2Q146.8 63.3 147.3 64.0Q147.9 64.8 148.8 65.1Q149.8 65.5 151.0 65.5L151.0 65.5Q152.1 65.5 153.0 65.2Q153.9 64.8 154.3 64.2Q154.8 63.6 154.8 62.8L154.8 62.8Q154.8 62.1 154.4 61.6Q154.0 61.1 153.1 60.7Q152.3 60.4 151.1 60.1L151.1 60.1L148.7 59.5Q146.0 58.8 144.4 57.4Q142.8 56.0 142.8 53.6L142.8 53.6Q142.8 51.6 143.9 50.1Q144.9 48.6 146.8 47.8Q148.7 46.9 151.1 46.9L151.1 46.9Q153.5 46.9 155.3 47.8Q157.1 48.6 158.1 50.1Q159.1 51.6 159.2 53.5L159.2 53.5ZM168.4 51.0L161.7 51.0L161.7 47.2L179.7 47.2L179.7 51.0L173.0 51.0L173.0 69.1L168.4 69.1L168.4 51.0ZM197.4 69.1L182.6 69.1L182.6 47.2L197.3 47.2L197.3 51.0L187.2 51.0L187.2 56.2L196.6 56.2L196.6 60.0L187.2 60.0L187.2 65.3L197.4 65.3L197.4 69.1ZM205.6 69.1L201.0 69.1L201.0 47.2L209.6 47.2Q212.1 47.2 213.8 48.1Q215.6 49.0 216.5 50.6Q217.4 52.2 217.4 54.4L217.4 54.4Q217.4 56.5 216.5 58.1Q215.5 59.7 213.8 60.5Q212.0 61.3 209.5 61.3L209.5 61.3L203.7 61.3L203.7 57.6L208.7 57.6Q210.1 57.6 210.9 57.3Q211.8 56.9 212.2 56.2Q212.7 55.4 212.7 54.4L212.7 54.4Q212.7 53.3 212.2 52.5Q211.8 51.8 210.9 51.4Q210.0 51.0 208.7 51.0L208.7 51.0L205.6 51.0L205.6 69.1ZM207.8 59.1L212.8 59.1L218.2 69.1L213.1 69.1L207.8 59.1Z M231.3 69.1L231.3 47.2L237.0 47.2L243.0 61.9L243.2 61.9L249.2 47.2L254.9 47.2L254.9 69.1L250.5 69.1L250.5 54.9L250.3 54.9L244.6 69.0L241.6 69.0L235.9 54.8L235.8 54.8L235.8 69.1L231.3 69.1ZM278.8 58.2L278.8 58.2Q278.8 61.7 277.4 64.2Q276.1 66.7 273.8 68.0Q271.4 69.4 268.6 69.4L268.6 69.4Q265.6 69.4 263.3 68.0Q261.0 66.7 259.7 64.2Q258.3 61.7 258.3 58.2L258.3 58.2Q258.3 54.6 259.7 52.1Q261.0 49.6 263.3 48.3Q265.6 46.9 268.6 46.9L268.6 46.9Q271.4 46.9 273.8 48.3Q276.1 49.6 277.4 52.1Q278.8 54.6 278.8 58.2ZM274.1 58.2L274.1 58.2Q274.1 55.8 273.4 54.3Q272.7 52.7 271.5 51.8Q270.2 51.0 268.6 51.0L268.6 51.0Q266.9 51.0 265.6 51.8Q264.4 52.7 263.7 54.3Q263.0 55.8 263.0 58.2L263.0 58.2Q263.0 60.5 263.7 62.1Q264.4 63.6 265.6 64.5Q266.9 65.3 268.6 65.3L268.6 65.3Q270.2 65.3 271.5 64.5Q272.7 63.6 273.4 62.1Q274.1 60.5 274.1 58.2ZM280.3 47.2L285.5 47.2L289.9 54.7L290.1 54.7L294.5 47.2L299.7 47.2L293.1 58.2L299.9 69.1L294.6 69.1L290.1 61.6L289.9 61.6L285.4 69.1L280.1 69.1L287.0 58.2L280.3 47.2ZM302.6 47.2L307.2 47.2L307.2 69.1L302.6 69.1L302.6 47.2ZM325.8 69.1L311.0 69.1L311.0 47.2L325.7 47.2L325.7 51.0L315.6 51.0L315.6 56.2L325.0 56.2L325.0 60.0L315.6 60.0L315.6 65.3L325.8 65.3L325.8 69.1Z "/><mask id="satori_om-id-1"><rect x="325" y="400" width="550" height="400" fill="#fff"/></mask><rect x="325" y="400" width="550" height="400" fill="#B455A2"/><path fill="white" d="M478.7 471.8L478.7 471.8L473.4 471.8Q472.9 469.5 471.8 467.8Q470.6 466.1 469.0 464.9Q467.3 463.7 465.3 463.1Q463.3 462.5 461.1 462.5L461.1 462.5Q457.2 462.5 454.0 464.5Q450.7 466.5 448.9 470.4Q447.0 474.3 447.0 480L447.0 480Q447.0 485.7 448.9 489.6Q450.7 493.5 454.0 495.5Q457.2 497.5 461.1 497.5L461.1 497.5Q463.3 497.5 465.3 496.9Q467.3 496.3 469.0 495.1Q470.6 493.9 471.8 492.2Q472.9 490.4 473.4 488.2L473.4 488.2L478.7 488.2Q478.1 491.5 476.5 494.2Q474.9 496.8 472.6 498.7Q470.2 500.5 467.3 501.5Q464.4 502.4 461.1 502.4L461.1 502.4Q455.5 502.4 451.2 499.7Q446.8 497.0 444.4 491.9Q441.9 486.9 441.9 480L441.9 480Q441.9 473.1 444.4 468.1Q446.8 463.0 451.2 460.3Q455.5 457.6 461.1 457.6L461.1 457.6Q464.4 457.6 467.3 458.5Q470.2 459.5 472.6 461.3Q474.9 463.2 476.5 465.8Q478.1 468.5 478.7 471.8ZM491.5 482.1L491.5 482.1L491.5 501.8L486.5 501.8L486.5 458.2L491.5 458.2L491.5 474.2L492.0 474.2Q493.1 471.7 495.4 470.2Q497.7 468.7 501.6 468.7L501.6 468.7Q505.0 468.7 507.5 470.0Q510.0 471.3 511.4 474.1Q512.8 476.8 512.8 481.0L512.8 481.0L512.8 501.8L507.7 501.8L507.7 481.4Q507.7 477.5 505.7 475.3Q503.7 473.2 500.2 473.2L500.2 473.2Q497.7 473.2 495.7 474.2Q493.8 475.3 492.7 477.3Q491.5 479.3 491.5 482.1ZM535.7 502.5L535.7 502.5Q531.0 502.5 527.5 500.4Q524.1 498.3 522.3 494.5Q520.4 490.7 520.4 485.7L520.4 485.7Q520.4 480.7 522.3 476.8Q524.1 473.0 527.4 470.8Q530.8 468.7 535.2 468.7L535.2 468.7Q537.7 468.7 540.2 469.5Q542.7 470.4 544.8 472.3Q546.8 474.2 548.0 477.3Q549.2 480.4 549.2 485.0L549.2 485.0L549.2 487.2L524.0 487.2L524.0 482.8L544.1 482.8Q544.1 480.0 543.0 477.9Q541.9 475.7 539.9 474.4Q537.9 473.2 535.2 473.2L535.2 473.2Q532.2 473.2 530.0 474.7Q527.8 476.1 526.6 478.5Q525.5 480.9 525.5 483.6L525.5 483.6L525.5 486.5Q525.5 490.2 526.8 492.8Q528.0 495.3 530.3 496.7Q532.6 498.0 535.7 498.0L535.7 498.0Q537.7 498.0 539.3 497.4Q540.9 496.9 542.1 495.7Q543.2 494.6 543.9 492.9L543.9 492.9L548.7 494.2Q548.0 496.7 546.2 498.6Q544.3 500.4 541.7 501.5Q539.0 502.5 535.7 502.5ZM570.2 502.5L570.2 502.5Q565.6 502.5 562.3 500.3Q559.0 498.2 557.2 494.3Q555.4 490.5 555.4 485.6L555.4 485.6Q555.4 480.6 557.2 476.8Q559.1 473.0 562.4 470.8Q565.7 468.7 570.1 468.7L570.1 468.7Q573.6 468.7 576.3 469.9Q579.1 471.2 580.9 473.5Q582.7 475.8 583.1 478.9L583.1 478.9L578.1 478.9Q577.5 476.7 575.5 474.9Q573.5 473.2 570.2 473.2L570.2 473.2Q567.3 473.2 565.1 474.7Q562.9 476.2 561.6 479.0Q560.4 481.7 560.4 485.5L560.4 485.5Q560.4 489.2 561.6 492.1Q562.8 494.9 565.0 496.4Q567.2 498.0 570.2 498.0L570.2 498.0Q572.2 498.0 573.8 497.3Q575.4 496.6 576.5 495.3Q577.6 494.1 578.1 492.3L578.1 492.3L583.1 492.3Q582.7 495.2 581.0 497.5Q579.3 499.8 576.6 501.1Q573.8 502.5 570.2 502.5ZM600.9 484.5L595.1 489.9L595.0 483.7L596.0 483.7L610.4 469.1L616.6 469.1L601.3 484.5L600.9 484.5ZM595.4 501.8L590.4 501.8L590.4 458.2L595.4 458.2L595.4 501.8ZM617.6 501.8L611.2 501.8L598.4 485.6L602.0 482.1L617.6 501.8Z M643.2 514.1L643.2 514.1Q641.9 514.1 640.9 513.9Q639.9 513.7 639.5 513.5L639.5 513.5L640.8 509.1Q642.6 509.5 644.0 509.4Q645.4 509.3 646.5 508.2Q647.6 507.0 648.5 504.5L648.5 504.5L649.5 502.0L637.4 469.1L642.8 469.1L651.9 495.2L652.2 495.2L661.2 469.1L666.7 469.1L652.8 506.6Q651.9 509.1 650.5 510.8Q649.1 512.5 647.3 513.3Q645.4 514.1 643.2 514.1ZM685.4 502.5L685.4 502.5Q681.0 502.5 677.7 500.4Q674.3 498.3 672.5 494.5Q670.6 490.7 670.6 485.6L670.6 485.6Q670.6 480.5 672.5 476.7Q674.3 472.9 677.7 470.8Q681.0 468.7 685.4 468.7L685.4 468.7Q689.9 468.7 693.2 470.8Q696.5 472.9 698.4 476.7Q700.3 480.5 700.3 485.6L700.3 485.6Q700.3 490.7 698.4 494.5Q696.5 498.3 693.2 500.4Q689.9 502.5 685.4 502.5ZM685.4 498.0L685.4 498.0Q688.8 498.0 691.0 496.3Q693.2 494.5 694.2 491.7Q695.2 488.9 695.2 485.6L695.2 485.6Q695.2 482.3 694.2 479.5Q693.2 476.7 691.0 474.9Q688.8 473.2 685.4 473.2L685.4 473.2Q682.1 473.2 679.9 474.9Q677.7 476.7 676.7 479.5Q675.6 482.3 675.6 485.6L675.6 485.6Q675.6 488.9 676.7 491.7Q677.7 494.5 679.9 496.3Q682.1 498.0 685.4 498.0ZM728.6 488.4L728.6 488.4L728.6 469.1L733.6 469.1L733.6 501.8L728.6 501.8L728.6 496.3L728.2 496.3Q727.1 498.8 724.6 500.5Q722.2 502.2 718.5 502.2L718.5 502.2Q715.4 502.2 713.1 500.9Q710.7 499.5 709.3 496.8Q707.9 494.1 707.9 489.9L707.9 489.9L707.9 469.1L713.0 469.1L713.0 489.5Q713.0 493.1 715.0 495.3Q717.0 497.4 720.1 497.4L720.1 497.4Q722.0 497.4 724.0 496.4Q725.9 495.5 727.2 493.5Q728.6 491.5 728.6 488.4ZM747.8 501.8L742.8 501.8L742.8 469.1L747.7 469.1L747.7 474.0L748.0 474.0Q748.9 471.6 751.2 470.1Q753.6 468.6 756.5 468.6L756.5 468.6Q757.1 468.6 757.9 468.6Q758.7 468.6 759.2 468.7L759.2 468.7L759.2 473.8Q758.9 473.7 758.0 473.6Q757.1 473.4 756.1 473.4L756.1 473.4Q753.7 473.4 751.8 474.4Q750.0 475.4 748.9 477.2Q747.8 478.9 747.8 481.1L747.8 481.1L747.8 501.8Z M437.9 621.8L437.9 578.2L444.2 578.2L459.1 614.4L459.6 614.4L474.4 578.2L480.7 578.2L480.7 621.8L475.8 621.8L475.8 588.7L475.4 588.7L461.7 621.8L456.9 621.8L443.3 588.7L442.9 588.7L442.9 621.8L437.9 621.8ZM503.9 622.5L503.9 622.5Q499.5 622.5 496.1 620.4Q492.8 618.3 490.9 614.5Q489.1 610.7 489.1 605.6L489.1 605.6Q489.1 600.5 490.9 596.7Q492.8 592.9 496.1 590.8Q499.5 588.7 503.9 588.7L503.9 588.7Q508.3 588.7 511.7 590.8Q515.0 592.9 516.9 596.7Q518.7 600.5 518.7 605.6L518.7 605.6Q518.7 610.7 516.9 614.5Q515.0 618.3 511.7 620.4Q508.3 622.5 503.9 622.5ZM503.9 618.0L503.9 618.0Q507.3 618.0 509.4 616.3Q511.6 614.5 512.7 611.7Q513.7 608.9 513.7 605.6L513.7 605.6Q513.7 602.3 512.7 599.5Q511.6 596.7 509.4 594.9Q507.3 593.2 503.9 593.2L503.9 593.2Q500.5 593.2 498.4 594.9Q496.2 596.7 495.1 599.5Q494.1 602.3 494.1 605.6L494.1 605.6Q494.1 608.9 495.1 611.7Q496.2 614.5 498.4 616.3Q500.5 618.0 503.9 618.0ZM523.0 589.1L528.8 589.1L536.6 602.5L544.5 589.1L550.3 589.1L539.7 605.5L550.3 621.8L544.5 621.8L536.6 609.1L528.8 621.8L523.0 621.8L533.4 605.5L523.0 589.1ZM562.5 621.8L557.4 621.8L557.4 589.1L562.5 589.1L562.5 621.8ZM560.0 583.6L560.0 583.6Q558.5 583.6 557.5 582.6Q556.4 581.6 556.4 580.2L556.4 580.2Q556.4 578.8 557.5 577.8Q558.5 576.8 560.0 576.8L560.0 576.8Q561.5 576.8 562.5 577.8Q563.6 578.8 563.6 580.2L563.6 580.2Q563.6 581.6 562.5 582.6Q561.5 583.6 560.0 583.6ZM585.4 622.5L585.4 622.5Q580.7 622.5 577.2 620.4Q573.8 618.3 572.0 614.5Q570.1 610.7 570.1 605.7L570.1 605.7Q570.1 600.7 572.0 596.8Q573.8 593.0 577.1 590.8Q580.4 588.7 584.9 588.7L584.9 588.7Q587.4 588.7 589.9 589.5Q592.4 590.4 594.5 592.3Q596.5 594.2 597.7 597.3Q598.9 600.4 598.9 605.0L598.9 605.0L598.9 607.2L573.7 607.2L573.7 602.8L593.8 602.8Q593.8 600.0 592.7 597.9Q591.6 595.7 589.6 594.4Q587.6 593.2 584.9 593.2L584.9 593.2Q581.9 593.2 579.7 594.7Q577.5 596.1 576.3 598.5Q575.2 600.9 575.2 603.6L575.2 603.6L575.2 606.5Q575.2 610.2 576.4 612.8Q577.7 615.3 580.0 616.7Q582.3 618.0 585.4 618.0L585.4 618.0Q587.4 618.0 589.0 617.4Q590.6 616.9 591.8 615.7Q592.9 614.6 593.6 612.9L593.6 612.9L598.4 614.2Q597.7 616.7 595.8 618.6Q594.0 620.4 591.4 621.5Q588.7 622.5 585.4 622.5Z M654.5 589.1L649.4 589.1Q649.0 585.9 646.3 584.1Q643.6 582.3 639.6 582.3L639.6 582.3Q636.7 582.3 634.5 583.2Q632.4 584.1 631.2 585.8Q630.0 587.4 630.0 589.5L630.0 589.5Q630.0 591.3 630.8 592.5Q631.6 593.8 633.0 594.6Q634.3 595.4 635.7 595.9Q637.2 596.4 638.4 596.8L638.4 596.8L642.8 598.0Q644.5 598.4 646.6 599.2Q648.7 600.0 650.7 601.3Q652.6 602.7 653.8 604.8Q655.1 606.9 655.1 610.0L655.1 610.0Q655.1 613.5 653.3 616.4Q651.4 619.2 647.9 620.9Q644.4 622.6 639.3 622.6L639.3 622.6Q634.6 622.6 631.2 621.1Q627.8 619.6 625.9 616.9Q623.9 614.1 623.7 610.6L623.7 610.6L629.1 610.6Q629.3 613.0 630.8 614.6Q632.2 616.3 634.5 617.0Q636.7 617.8 639.3 617.8L639.3 617.8Q642.4 617.8 644.8 616.8Q647.2 615.8 648.6 614.1Q650.0 612.3 650.0 609.9L650.0 609.9Q650.0 607.7 648.8 606.3Q647.6 605.0 645.6 604.1Q643.6 603.3 641.3 602.6L641.3 602.6L635.9 601.1Q630.8 599.6 627.8 596.9Q624.8 594.2 624.8 589.8L624.8 589.8Q624.8 586.1 626.8 583.4Q628.8 580.6 632.2 579.1Q635.6 577.6 639.8 577.6L639.8 577.6Q644.0 577.6 647.3 579.1Q650.5 580.6 652.5 583.2Q654.4 585.8 654.5 589.1L654.5 589.1ZM660.4 589.1L677.3 589.1L677.3 593.4L660.4 593.4L660.4 589.1ZM665.3 613.8L665.3 581.2L670.4 581.2L670.4 612.4Q670.4 614.6 671.0 615.6Q671.6 616.7 672.6 617.0Q673.6 617.4 674.7 617.4L674.7 617.4Q675.5 617.4 676.1 617.3Q676.6 617.2 676.9 617.1L676.9 617.1L677.9 621.6Q677.4 621.8 676.5 622.0Q675.6 622.2 674.2 622.2L674.2 622.2Q672.1 622.2 670.0 621.3Q668.0 620.4 666.7 618.5Q665.3 616.7 665.3 613.8L665.3 613.8ZM694.6 622.6L694.6 622.6Q691.4 622.6 688.9 621.4Q686.4 620.2 684.9 618.0Q683.4 615.7 683.4 612.5L683.4 612.5Q683.4 609.7 684.5 608.0Q685.6 606.2 687.5 605.2Q689.3 604.2 691.6 603.7Q693.8 603.2 696.1 602.9L696.1 602.9Q699.1 602.5 700.9 602.3Q702.8 602.1 703.7 601.6Q704.5 601.1 704.5 599.9L704.5 599.9L704.5 599.7Q704.5 596.6 702.8 594.8Q701.1 593.1 697.6 593.1L697.6 593.1Q694.0 593.1 692.0 594.7Q689.9 596.2 689.1 598.0L689.1 598.0L684.3 596.3Q685.6 593.4 687.8 591.7Q689.9 590.0 692.4 589.3Q695.0 588.7 697.5 588.7L697.5 588.7Q699.0 588.7 701.1 589.0Q703.1 589.4 705.1 590.6Q707.0 591.7 708.3 594.0Q709.6 596.4 709.6 600.3L709.6 600.3L709.6 621.8L704.5 621.8L704.5 617.4L704.3 617.4Q703.8 618.5 702.6 619.7Q701.4 620.9 699.4 621.7Q697.4 622.6 694.6 622.6ZM695.3 618.1L695.3 618.1Q698.3 618.1 700.4 616.9Q702.4 615.7 703.5 613.9Q704.5 612.0 704.5 610.0L704.5 610.0L704.5 605.4Q704.2 605.8 703.1 606.1Q702.1 606.4 700.7 606.6Q699.3 606.8 698.0 607.0Q696.6 607.1 695.8 607.2L695.8 607.2Q693.9 607.5 692.2 608.1Q690.5 608.6 689.5 609.7Q688.4 610.9 688.4 612.8L688.4 612.8Q688.4 615.4 690.4 616.7Q692.3 618.1 695.3 618.1ZM716.0 589.1L733.0 589.1L733.0 593.4L716.0 593.4L716.0 589.1ZM721.0 613.8L721.0 581.2L726.0 581.2L726.0 612.4Q726.0 614.6 726.6 615.6Q727.3 616.7 728.3 617.0Q729.2 617.4 730.4 617.4L730.4 617.4Q731.2 617.4 731.7 617.3Q732.3 617.2 732.6 617.1L732.6 617.1L733.6 621.6Q733.1 621.8 732.2 622.0Q731.3 622.2 729.8 622.2L729.8 622.2Q727.7 622.2 725.7 621.3Q723.6 620.4 722.3 618.5Q721.0 616.7 721.0 613.8L721.0 613.8ZM763.2 596.4L763.2 596.4L758.7 597.7Q758.2 596.6 757.4 595.5Q756.6 594.4 755.2 593.7Q753.8 593.0 751.6 593.0L751.6 593.0Q748.6 593.0 746.6 594.4Q744.6 595.8 744.6 597.9L744.6 597.9Q744.6 599.7 746.0 600.8Q747.3 601.9 750.2 602.6L750.2 602.6L755.1 603.8Q759.5 604.9 761.6 607.1Q763.8 609.3 763.8 612.7L763.8 612.7Q763.8 615.5 762.2 617.7Q760.5 619.9 757.7 621.2Q754.8 622.5 751.0 622.5L751.0 622.5Q746.0 622.5 742.7 620.3Q739.4 618.2 738.5 614.0L738.5 614.0L743.3 612.8Q744.0 615.4 745.9 616.7Q747.8 618.1 750.9 618.1L750.9 618.1Q754.4 618.1 756.5 616.6Q758.6 615.1 758.6 613.0L758.6 613.0Q758.6 611.2 757.4 610.1Q756.2 608.9 753.7 608.4L753.7 608.4L748.3 607.1Q743.8 606.0 741.7 603.8Q739.6 601.5 739.6 598.1L739.6 598.1Q739.6 595.4 741.1 593.2Q742.7 591.1 745.4 589.9Q748.1 588.7 751.6 588.7L751.6 588.7Q756.4 588.7 759.2 590.8Q762.0 592.9 763.2 596.4Z M541.4 722.1L541.4 722.1L541.4 741.8L536.4 741.8L536.4 709.1L541.3 709.1L541.3 714.2L541.7 714.2Q542.9 711.7 545.2 710.2Q547.5 708.7 551.2 708.7L551.2 708.7Q554.6 708.7 557.1 710.0Q559.6 711.4 560.9 714.1Q562.3 716.8 562.3 721.0L562.3 721.0L562.3 741.8L557.3 741.8L557.3 721.4Q557.3 717.5 555.3 715.3Q553.3 713.2 549.8 713.2L549.8 713.2Q547.4 713.2 545.5 714.2Q543.6 715.3 542.5 717.3Q541.4 719.3 541.4 722.1ZM584.8 742.5L584.8 742.5Q580.4 742.5 577.1 740.4Q573.7 738.3 571.9 734.5Q570 730.7 570 725.6L570 725.6Q570 720.5 571.9 716.7Q573.7 712.9 577.1 710.8Q580.4 708.7 584.8 708.7L584.8 708.7Q589.3 708.7 592.6 710.8Q595.9 712.9 597.8 716.7Q599.7 720.5 599.7 725.6L599.7 725.6Q599.7 730.7 597.8 734.5Q595.9 738.3 592.6 740.4Q589.3 742.5 584.8 742.5ZM584.8 738.0L584.8 738.0Q588.2 738.0 590.4 736.3Q592.5 734.5 593.6 731.7Q594.6 728.9 594.6 725.6L594.6 725.6Q594.6 722.3 593.6 719.5Q592.5 716.7 590.4 714.9Q588.2 713.2 584.8 713.2L584.8 713.2Q581.5 713.2 579.3 714.9Q577.1 716.7 576.1 719.5Q575.0 722.3 575.0 725.6L575.0 725.6Q575.0 728.9 576.1 731.7Q577.1 734.5 579.3 736.3Q581.5 738.0 584.8 738.0ZM618.6 741.8L613.6 741.8L603.7 709.1L608.9 709.1L616.0 734.1L616.4 734.1L623.4 709.1L628.7 709.1L635.6 734.1L636.0 734.1L643.0 709.1L648.3 709.1L638.4 741.8L633.4 741.8L626.3 716.7L625.7 716.7L618.6 741.8ZM655.8 698.2L661.6 698.2L661.2 729.5L656.3 729.5L655.8 698.2ZM658.7 742.2L658.7 742.2Q657.1 742.2 656.0 741.0Q654.9 739.9 654.9 738.3L654.9 738.3Q654.9 736.7 656.0 735.6Q657.1 734.5 658.7 734.5L658.7 734.5Q660.3 734.5 661.4 735.6Q662.6 736.7 662.6 738.3L662.6 738.3Q662.6 739.4 662.0 740.2Q661.5 741.1 660.6 741.6Q659.8 742.2 658.7 742.2Z "/><defs><clipPath id="satori_bc-id-2"><rect x="40" y="1113" width="1120" height="47"/></clipPath></defs><mask id="satori_om-id-2"><rect x="40" y="1114" width="1120" height="46" fill="#fff"/><path width="1120" height="47" fill="none" stroke="#000" stroke-width="2" d="M40,1113 A0,0 0 0 1 40,1113 h1120 A0,0 0 0 1 1160,1113"/></mask><path width="1120" height="47" clip-path="url(#satori_bc-id-2)" fill="none" stroke="black" stroke-width="2" d="M40,1113 A0,0 0 0 1 40,1113 h1120 A0,0 0 0 1 1160,1113"/><mask id="satori_om-id-2-0"><rect x="40" y="1124" width="220" height="36" fill="#fff"/></mask><path fill="black" d="M50.4 1155.8L48.7 1155.8L48.7 1128.5L50.4 1128.5L50.4 1155.8ZM57.1 1136.7L54.6 1136.7Q54.4 1135.1 53.0 1134.2Q51.7 1133.3 49.7 1133.3L49.7 1133.3Q48.2 1133.3 47.1 1133.8Q46.1 1134.2 45.5 1135.0Q44.9 1135.9 44.9 1136.9L44.9 1136.9Q44.9 1137.8 45.3 1138.4Q45.7 1139.0 46.4 1139.4Q47.0 1139.9 47.7 1140.1Q48.5 1140.4 49.1 1140.5L49.1 1140.5L51.3 1141.1Q52.1 1141.4 53.2 1141.7Q54.2 1142.1 55.2 1142.8Q56.2 1143.5 56.8 1144.6Q57.4 1145.6 57.4 1147.1L57.4 1147.1Q57.4 1148.9 56.5 1150.3Q55.6 1151.8 53.8 1152.6Q52.1 1153.4 49.5 1153.4L49.5 1153.4Q47.2 1153.4 45.5 1152.7Q43.8 1151.9 42.8 1150.6Q41.8 1149.2 41.7 1147.4L41.7 1147.4L44.4 1147.4Q44.5 1148.7 45.3 1149.5Q46.0 1150.3 47.1 1150.7Q48.2 1151.1 49.5 1151.1L49.5 1151.1Q51.1 1151.1 52.3 1150.6Q53.5 1150.1 54.2 1149.2Q54.9 1148.3 54.9 1147.1L54.9 1147.1Q54.9 1146.0 54.3 1145.3Q53.7 1144.6 52.7 1144.2Q51.7 1143.8 50.5 1143.5L50.5 1143.5L47.8 1142.7Q45.3 1142.0 43.8 1140.6Q42.3 1139.2 42.3 1137.0L42.3 1137.0Q42.3 1135.2 43.3 1133.8Q44.3 1132.5 46.0 1131.7Q47.7 1130.9 49.8 1130.9L49.8 1130.9Q51.9 1130.9 53.5 1131.7Q55.1 1132.4 56.1 1133.7Q57.1 1135.0 57.1 1136.7L57.1 1136.7ZM61.8 1153.1L61.8 1131.2L64.9 1131.2L72.3 1149.4L72.6 1149.4L80.0 1131.2L83.2 1131.2L83.2 1153.1L80.7 1153.1L80.7 1136.5L80.5 1136.5L73.7 1153.1L71.3 1153.1L64.5 1136.5L64.2 1136.5L64.2 1153.1L61.8 1153.1ZM106.9 1142.2L106.9 1142.2Q106.9 1145.6 105.6 1148.1Q104.4 1150.6 102.2 1152.0Q100.0 1153.4 97.2 1153.4L97.2 1153.4Q94.4 1153.4 92.3 1152.0Q90.1 1150.6 88.8 1148.1Q87.6 1145.6 87.6 1142.2L87.6 1142.2Q87.6 1138.7 88.8 1136.2Q90.1 1133.7 92.3 1132.3Q94.4 1130.9 97.2 1130.9L97.2 1130.9Q100.0 1130.9 102.2 1132.3Q104.4 1133.7 105.6 1136.2Q106.9 1138.7 106.9 1142.2ZM104.3 1142.2L104.3 1142.2Q104.3 1139.3 103.4 1137.4Q102.4 1135.4 100.8 1134.4Q99.2 1133.4 97.2 1133.4L97.2 1133.4Q95.2 1133.4 93.6 1134.4Q92.0 1135.4 91.1 1137.4Q90.2 1139.3 90.2 1142.2L90.2 1142.2Q90.2 1145.0 91.1 1146.9Q92.0 1148.9 93.6 1149.9Q95.2 1150.9 97.2 1150.9L97.2 1150.9Q99.2 1150.9 100.8 1149.9Q102.4 1148.9 103.4 1146.9Q104.3 1145.0 104.3 1142.2ZM109.1 1131.2L112.2 1131.2L117.9 1140.3L118.0 1140.3L123.7 1131.2L126.8 1131.2L119.9 1142.2L126.8 1153.1L123.7 1153.1L118.0 1144.2L117.9 1144.2L112.2 1153.1L109.1 1153.1L116.2 1142.2L109.1 1131.2ZM130.2 1131.2L132.9 1131.2L132.9 1153.1L130.2 1153.1L130.2 1131.2ZM151.5 1153.1L138.1 1153.1L138.1 1131.2L151.3 1131.2L151.3 1133.6L140.8 1133.6L140.8 1141.0L150.6 1141.0L150.6 1143.3L140.8 1143.3L140.8 1150.7L151.5 1150.7L151.5 1153.1Z M179.3 1136.7L176.8 1136.7Q176.6 1135.1 175.2 1134.2Q173.9 1133.3 171.9 1133.3L171.9 1133.3Q170.4 1133.3 169.4 1133.8Q168.3 1134.2 167.7 1135.0Q167.1 1135.9 167.1 1136.9L167.1 1136.9Q167.1 1137.8 167.5 1138.4Q167.9 1139.0 168.6 1139.4Q169.2 1139.9 170.0 1140.1Q170.7 1140.4 171.3 1140.5L171.3 1140.5L173.5 1141.1Q174.4 1141.4 175.4 1141.7Q176.5 1142.1 177.4 1142.8Q178.4 1143.5 179.0 1144.6Q179.6 1145.6 179.6 1147.1L179.6 1147.1Q179.6 1148.9 178.7 1150.3Q177.8 1151.8 176.0 1152.6Q174.3 1153.4 171.8 1153.4L171.8 1153.4Q169.4 1153.4 167.7 1152.7Q166.0 1151.9 165.0 1150.6Q164.0 1149.2 163.9 1147.4L163.9 1147.4L166.6 1147.4Q166.8 1148.7 167.5 1149.5Q168.2 1150.3 169.3 1150.7Q170.5 1151.1 171.8 1151.1L171.8 1151.1Q173.3 1151.1 174.5 1150.6Q175.7 1150.1 176.4 1149.2Q177.1 1148.3 177.1 1147.1L177.1 1147.1Q177.1 1146.0 176.5 1145.3Q175.9 1144.6 174.9 1144.2Q173.9 1143.8 172.7 1143.5L172.7 1143.5L170.1 1142.7Q167.5 1142.0 166.0 1140.6Q164.5 1139.2 164.5 1137.0L164.5 1137.0Q164.5 1135.2 165.5 1133.8Q166.5 1132.5 168.2 1131.7Q169.9 1130.9 172.0 1130.9L172.0 1130.9Q174.1 1130.9 175.7 1131.7Q177.4 1132.4 178.3 1133.7Q179.3 1135.0 179.3 1136.7L179.3 1136.7ZM189.7 1133.6L182.8 1133.6L182.8 1131.2L199.2 1131.2L199.2 1133.6L192.3 1133.6L192.3 1153.1L189.7 1153.1L189.7 1133.6ZM208.1 1134.7L201.6 1153.1L198.8 1153.1L206.8 1131.2L209.6 1131.2L217.6 1153.1L214.8 1153.1L208.3 1134.7L208.1 1134.7ZM202.6 1146.9L202.6 1144.5L213.8 1144.5L213.8 1146.9L202.6 1146.9ZM224.1 1133.6L217.2 1133.6L217.2 1131.2L233.6 1131.2L233.6 1133.6L226.7 1133.6L226.7 1153.1L224.1 1153.1L224.1 1133.6ZM252.2 1136.7L249.6 1136.7Q249.4 1135.1 248.1 1134.2Q246.7 1133.3 244.7 1133.3L244.7 1133.3Q243.3 1133.3 242.2 1133.8Q241.1 1134.2 240.5 1135.0Q239.9 1135.9 239.9 1136.9L239.9 1136.9Q239.9 1137.8 240.3 1138.4Q240.7 1139.0 241.4 1139.4Q242.1 1139.9 242.8 1140.1Q243.5 1140.4 244.1 1140.5L244.1 1140.5L246.3 1141.1Q247.2 1141.4 248.2 1141.7Q249.3 1142.1 250.3 1142.8Q251.2 1143.5 251.8 1144.6Q252.5 1145.6 252.5 1147.1L252.5 1147.1Q252.5 1148.9 251.6 1150.3Q250.6 1151.8 248.9 1152.6Q247.1 1153.4 244.6 1153.4L244.6 1153.4Q242.2 1153.4 240.5 1152.7Q238.8 1151.9 237.8 1150.6Q236.9 1149.2 236.7 1147.4L236.7 1147.4L239.5 1147.4Q239.6 1148.7 240.3 1149.5Q241.0 1150.3 242.2 1150.7Q243.3 1151.1 244.6 1151.1L244.6 1151.1Q246.1 1151.1 247.3 1150.6Q248.5 1150.1 249.2 1149.2Q249.9 1148.3 249.9 1147.1L249.9 1147.1Q249.9 1146.0 249.3 1145.3Q248.7 1144.6 247.7 1144.2Q246.7 1143.8 245.6 1143.5L245.6 1143.5L242.9 1142.7Q240.3 1142.0 238.8 1140.6Q237.3 1139.2 237.3 1137.0L237.3 1137.0Q237.3 1135.2 238.3 1133.8Q239.3 1132.5 241.0 1131.7Q242.7 1130.9 244.8 1130.9L244.8 1130.9Q246.9 1130.9 248.6 1131.7Q250.2 1132.4 251.2 1133.7Q252.1 1135.0 252.2 1136.7L252.2 1136.7Z "/><mask id="satori_om-id-2-1"><rect x="935" y="1124" width="225" height="36" fill="#fff"/></mask><path fill="black" d="M940.1 1153.1L937.6 1153.1L937.6 1131.2L940.2 1131.2L940.2 1139.3L940.4 1139.3Q940.6 1138.9 941.1 1138.2Q941.6 1137.5 942.6 1137.0Q943.5 1136.5 945.1 1136.5L945.1 1136.5Q947.2 1136.5 948.7 1137.5Q950.3 1138.6 951.2 1140.4Q952.1 1142.3 952.1 1144.9L952.1 1144.9Q952.1 1147.5 951.2 1149.4Q950.3 1151.3 948.8 1152.4Q947.2 1153.4 945.1 1153.4L945.1 1153.4Q943.6 1153.4 942.6 1152.9Q941.7 1152.3 941.2 1151.7Q940.6 1151.0 940.4 1150.5L940.4 1150.5L940.1 1150.5L940.1 1153.1ZM940.1 1144.9L940.1 1144.9Q940.1 1146.7 940.7 1148.1Q941.2 1149.6 942.2 1150.4Q943.3 1151.1 944.8 1151.1L944.8 1151.1Q946.4 1151.1 947.4 1150.3Q948.5 1149.5 949.0 1148.1Q949.6 1146.6 949.6 1144.9L949.6 1144.9Q949.6 1143.2 949.0 1141.8Q948.5 1140.4 947.5 1139.6Q946.4 1138.7 944.8 1138.7L944.8 1138.7Q943.3 1138.7 942.2 1139.5Q941.2 1140.3 940.6 1141.7Q940.1 1143.0 940.1 1144.9ZM956.9 1159.2L956.9 1159.2Q956.3 1159.2 955.8 1159.1Q955.3 1159.0 955.1 1158.9L955.1 1158.9L955.8 1156.7Q956.7 1156.9 957.4 1156.9Q958.1 1156.8 958.6 1156.2Q959.2 1155.7 959.6 1154.4L959.6 1154.4L960.1 1153.1L954.0 1136.7L956.8 1136.7L961.3 1149.7L961.5 1149.7L966.0 1136.7L968.7 1136.7L961.8 1155.4Q961.3 1156.7 960.6 1157.6Q959.9 1158.4 959.0 1158.8Q958.1 1159.2 956.9 1159.2Z M993.6 1158.8L993.6 1158.8Q990.4 1158.8 987.9 1157.9Q985.4 1157.0 983.7 1155.3Q982.0 1153.6 981.1 1151.1Q980.2 1148.6 980.2 1145.3L980.2 1145.3Q980.2 1142.2 981.1 1139.8Q982.0 1137.3 983.7 1135.6Q985.4 1133.9 987.8 1133.0Q990.3 1132.1 993.3 1132.1L993.3 1132.1Q996.3 1132.1 998.6 1133.0Q1000.8 1134.0 1002.4 1135.7Q1003.9 1137.3 1004.6 1139.4Q1005.4 1141.5 1005.4 1143.6L1005.4 1143.6Q1005.4 1145.2 1005.2 1146.8Q1005.1 1148.4 1004.6 1149.7Q1004.1 1151.0 1003.1 1151.8Q1002.1 1152.6 1000.5 1152.6L1000.5 1152.6Q999.7 1152.6 998.8 1152.4Q997.9 1152.2 997.2 1151.6Q996.5 1151.1 996.4 1150.2L996.4 1150.2L996.3 1150.2Q996.0 1150.8 995.5 1151.3Q995.0 1151.9 994.1 1152.2Q993.3 1152.6 992.1 1152.5L992.1 1152.5Q990.7 1152.5 989.6 1151.9Q988.6 1151.3 987.9 1150.3Q987.1 1149.3 986.8 1148.0Q986.4 1146.7 986.4 1145.2L986.4 1145.2Q986.4 1143.8 986.9 1142.6Q987.3 1141.4 988.0 1140.5Q988.8 1139.6 989.8 1139.1Q990.9 1138.5 992.1 1138.4L992.1 1138.4Q993.1 1138.3 994.0 1138.5Q994.9 1138.7 995.4 1139.1Q996.0 1139.5 996.2 1139.9L996.2 1139.9L996.3 1139.9L996.3 1138.7L998.5 1138.7L998.5 1148.4Q998.5 1149.3 999.0 1150.0Q999.5 1150.6 1000.5 1150.6L1000.5 1150.6Q1001.6 1150.6 1002.2 1149.9Q1002.7 1149.1 1003.0 1147.6Q1003.2 1146.0 1003.2 1143.6L1003.2 1143.6Q1003.2 1142.2 1002.8 1140.8Q1002.4 1139.4 1001.6 1138.2Q1000.8 1137.0 999.6 1136.0Q998.5 1135.1 996.8 1134.6Q995.2 1134.1 993.2 1134.1L993.2 1134.1Q990.7 1134.1 988.7 1134.8Q986.8 1135.6 985.4 1137.1Q984.0 1138.6 983.3 1140.7Q982.6 1142.8 982.6 1145.4L982.6 1145.4Q982.6 1148.2 983.3 1150.3Q984.0 1152.4 985.4 1153.8Q986.8 1155.3 988.9 1156.0Q991.0 1156.8 993.7 1156.8L993.7 1156.8Q994.9 1156.8 996.0 1156.5Q997.2 1156.3 998.0 1156.1Q998.9 1155.8 999.3 1155.7L999.3 1155.7L999.9 1157.6Q999.2 1157.9 998.2 1158.2Q997.1 1158.5 995.9 1158.6Q994.7 1158.8 993.6 1158.8ZM992.4 1150.3L992.4 1150.3Q993.8 1150.3 994.7 1149.8Q995.6 1149.2 996.0 1148.0Q996.4 1146.9 996.4 1145.1L996.4 1145.1Q996.4 1143.3 996.0 1142.3Q995.5 1141.3 994.6 1140.9Q993.8 1140.5 992.5 1140.5L992.5 1140.5Q991.3 1140.5 990.4 1141.1Q989.6 1141.8 989.1 1142.8Q988.7 1143.9 988.7 1145.1L988.7 1145.1Q988.7 1146.5 989.0 1147.7Q989.4 1148.9 990.2 1149.6Q991.0 1150.3 992.4 1150.3ZM1011.7 1143.2L1011.7 1143.2L1011.7 1153.1L1009.1 1153.1L1009.1 1131.2L1011.7 1131.2L1011.7 1139.3L1011.9 1139.3Q1012.5 1138.0 1013.6 1137.2Q1014.8 1136.5 1016.7 1136.5L1016.7 1136.5Q1018.4 1136.5 1019.6 1137.2Q1020.9 1137.8 1021.6 1139.2Q1022.3 1140.6 1022.3 1142.7L1022.3 1142.7L1022.3 1153.1L1019.8 1153.1L1019.8 1142.8Q1019.8 1140.9 1018.8 1139.8Q1017.7 1138.7 1016.0 1138.7L1016.0 1138.7Q1014.7 1138.7 1013.8 1139.3Q1012.8 1139.8 1012.2 1140.8Q1011.7 1141.8 1011.7 1143.2ZM1033.7 1153.4L1033.7 1153.4Q1031.4 1153.4 1029.7 1152.4Q1028.0 1151.3 1027.0 1149.4Q1026.1 1147.5 1026.1 1145.0L1026.1 1145.0Q1026.1 1142.5 1027.0 1140.6Q1028.0 1138.6 1029.6 1137.6Q1031.3 1136.5 1033.5 1136.5L1033.5 1136.5Q1034.8 1136.5 1036.0 1136.9Q1037.3 1137.3 1038.3 1138.3Q1039.3 1139.2 1039.9 1140.8Q1040.5 1142.4 1040.5 1144.7L1040.5 1144.7L1040.5 1145.7L1027.9 1145.7L1027.9 1143.6L1038.0 1143.6Q1038.0 1142.2 1037.4 1141.1Q1036.9 1140.0 1035.9 1139.4Q1034.8 1138.7 1033.5 1138.7L1033.5 1138.7Q1032.0 1138.7 1030.9 1139.5Q1029.8 1140.2 1029.2 1141.4Q1028.6 1142.6 1028.6 1143.9L1028.6 1143.9L1028.6 1145.4Q1028.6 1147.2 1029.3 1148.5Q1029.9 1149.8 1031.1 1150.5Q1032.2 1151.1 1033.7 1151.1L1033.7 1151.1Q1034.7 1151.1 1035.5 1150.9Q1036.3 1150.6 1036.9 1150.0Q1037.5 1149.4 1037.8 1148.6L1037.8 1148.6L1040.3 1149.3Q1039.9 1150.5 1039.0 1151.4Q1038.1 1152.4 1036.7 1152.9Q1035.4 1153.4 1033.7 1153.4ZM1046.9 1153.1L1044.3 1153.1L1044.3 1136.7L1046.8 1136.7L1046.8 1139.3L1047.0 1139.3Q1047.5 1137.9 1048.6 1137.2Q1049.8 1136.5 1051.4 1136.5L1051.4 1136.5Q1053.0 1136.5 1054.1 1137.2Q1055.2 1137.9 1055.8 1139.3L1055.8 1139.3L1055.9 1139.3Q1056.6 1138.0 1057.8 1137.2Q1059.1 1136.5 1060.8 1136.5L1060.8 1136.5Q1063.0 1136.5 1064.4 1137.9Q1065.8 1139.2 1065.8 1142.1L1065.8 1142.1L1065.8 1153.1L1063.3 1153.1L1063.3 1142.1Q1063.3 1140.3 1062.3 1139.5Q1061.3 1138.7 1060.0 1138.7L1060.0 1138.7Q1058.3 1138.7 1057.3 1139.8Q1056.4 1140.8 1056.4 1142.4L1056.4 1142.4L1056.4 1153.1L1053.8 1153.1L1053.8 1141.9Q1053.8 1140.5 1052.9 1139.6Q1052.0 1138.7 1050.6 1138.7L1050.6 1138.7Q1049.6 1138.7 1048.7 1139.3Q1047.9 1139.8 1047.4 1140.7Q1046.9 1141.6 1046.9 1142.8L1046.9 1142.8L1046.9 1153.1ZM1075.2 1153.4L1075.2 1153.4Q1073.7 1153.4 1072.4 1152.9Q1071.2 1152.3 1070.4 1151.1Q1069.7 1150.0 1069.7 1148.4L1069.7 1148.4Q1069.7 1147.0 1070.2 1146.1Q1070.8 1145.3 1071.7 1144.8Q1072.6 1144.3 1073.7 1144.0Q1074.9 1143.8 1076.0 1143.6L1076.0 1143.6Q1077.5 1143.4 1078.4 1143.3Q1079.4 1143.2 1079.8 1143.0Q1080.2 1142.7 1080.2 1142.1L1080.2 1142.1L1080.2 1142.0Q1080.2 1140.4 1079.4 1139.6Q1078.5 1138.7 1076.8 1138.7L1076.8 1138.7Q1075.0 1138.7 1074.0 1139.5Q1072.9 1140.3 1072.5 1141.2L1072.5 1141.2L1070.1 1140.3Q1070.8 1138.8 1071.8 1138.0Q1072.9 1137.2 1074.2 1136.8Q1075.5 1136.5 1076.7 1136.5L1076.7 1136.5Q1077.5 1136.5 1078.5 1136.7Q1079.5 1136.9 1080.5 1137.4Q1081.5 1138.0 1082.1 1139.2Q1082.7 1140.3 1082.7 1142.3L1082.7 1142.3L1082.7 1153.1L1080.2 1153.1L1080.2 1150.8L1080.1 1150.8Q1079.8 1151.4 1079.2 1152.0Q1078.7 1152.6 1077.7 1153.0Q1076.7 1153.4 1075.2 1153.4ZM1075.6 1151.2L1075.6 1151.2Q1077.1 1151.2 1078.1 1150.6Q1079.2 1150.0 1079.7 1149.1Q1080.2 1148.2 1080.2 1147.1L1080.2 1147.1L1080.2 1144.8Q1080.1 1145.0 1079.5 1145.2Q1079.0 1145.3 1078.3 1145.5Q1077.6 1145.6 1076.9 1145.6Q1076.3 1145.7 1075.9 1145.8L1075.9 1145.8Q1074.9 1145.9 1074.1 1146.2Q1073.2 1146.5 1072.7 1147.0Q1072.2 1147.6 1072.2 1148.5L1072.2 1148.5Q1072.2 1149.9 1073.1 1150.5Q1074.1 1151.2 1075.6 1151.2ZM1089.9 1143.2L1089.9 1143.2L1089.9 1153.1L1087.3 1153.1L1087.3 1136.7L1089.8 1136.7L1089.8 1139.3L1090.0 1139.3Q1090.6 1138.0 1091.7 1137.2Q1092.9 1136.5 1094.8 1136.5L1094.8 1136.5Q1096.4 1136.5 1097.7 1137.2Q1098.9 1137.8 1099.6 1139.2Q1100.3 1140.6 1100.3 1142.7L1100.3 1142.7L1100.3 1153.1L1097.8 1153.1L1097.8 1142.8Q1097.8 1140.9 1096.8 1139.8Q1095.8 1138.7 1094.0 1138.7L1094.0 1138.7Q1092.8 1138.7 1091.9 1139.3Q1090.9 1139.8 1090.4 1140.8Q1089.9 1141.8 1089.9 1143.2ZM1107.4 1153.1L1104.9 1153.1L1104.9 1136.7L1107.3 1136.7L1107.3 1139.2L1107.5 1139.2Q1107.9 1138.0 1109.1 1137.2Q1110.3 1136.4 1111.8 1136.4L1111.8 1136.4Q1112.0 1136.4 1112.5 1136.5Q1112.9 1136.5 1113.1 1136.5L1113.1 1136.5L1113.1 1139.0Q1113.0 1139.0 1112.5 1138.9Q1112.0 1138.9 1111.5 1138.9L1111.5 1138.9Q1110.4 1138.9 1109.4 1139.4Q1108.5 1139.9 1108.0 1140.7Q1107.4 1141.6 1107.4 1142.7L1107.4 1142.7L1107.4 1153.1ZM1126.4 1146.4L1126.4 1146.4L1126.4 1136.7L1128.9 1136.7L1128.9 1153.1L1126.4 1153.1L1126.4 1150.3L1126.2 1150.3Q1125.6 1151.5 1124.4 1152.4Q1123.2 1153.3 1121.3 1153.3L1121.3 1153.3Q1119.8 1153.3 1118.6 1152.6Q1117.4 1151.9 1116.7 1150.6Q1116.1 1149.2 1116.1 1147.1L1116.1 1147.1L1116.1 1136.7L1118.6 1136.7L1118.6 1146.9Q1118.6 1148.7 1119.6 1149.8Q1120.6 1150.8 1122.2 1150.8L1122.2 1150.8Q1123.1 1150.8 1124.1 1150.4Q1125.0 1149.9 1125.7 1148.9Q1126.4 1147.9 1126.4 1146.4ZM1136.0 1153.1L1133.5 1153.1L1133.5 1136.7L1135.9 1136.7L1135.9 1139.2L1136.1 1139.2Q1136.5 1138.0 1137.7 1137.2Q1138.9 1136.4 1140.4 1136.4L1140.4 1136.4Q1140.6 1136.4 1141.0 1136.5Q1141.5 1136.5 1141.7 1136.5L1141.7 1136.5L1141.7 1139.0Q1141.5 1139.0 1141.1 1138.9Q1140.6 1138.9 1140.1 1138.9L1140.1 1138.9Q1138.9 1138.9 1138.0 1139.4Q1137.1 1139.9 1136.5 1140.7Q1136.0 1141.6 1136.0 1142.7L1136.0 1142.7L1136.0 1153.1ZM1155.0 1146.4L1155.0 1146.4L1155.0 1136.7L1157.5 1136.7L1157.5 1153.1L1155.0 1153.1L1155.0 1150.3L1154.8 1150.3Q1154.2 1151.5 1153.0 1152.4Q1151.8 1153.3 1149.9 1153.3L1149.9 1153.3Q1148.4 1153.3 1147.2 1152.6Q1146.0 1151.9 1145.3 1150.6Q1144.7 1149.2 1144.7 1147.1L1144.7 1147.1L1144.7 1136.7L1147.2 1136.7L1147.2 1146.9Q1147.2 1148.7 1148.2 1149.8Q1149.2 1150.8 1150.8 1150.8L1150.8 1150.8Q1151.7 1150.8 1152.7 1150.4Q1153.6 1149.9 1154.3 1148.9Q1155.0 1147.9 1155.0 1146.4Z "/></svg>