<svg xmlns="http://www.w3.org/2000/svg" fill="none" viewBox="0 0 146 36" width="145px" class="relative z-50 max-sm:w-[116px]"><path fill="#E8DDFF" d="M5.846 26.309H2.923v2.923H0v5.846h8.77v-5.846H5.846zM32.155 26.309v2.923h-2.923v-2.923h-2.923v8.77h8.77v-8.77z"></path><path fill="#8E55FF" d="M14.616 5.845v2.923h-2.923v2.923H8.77V8.769H5.846v2.923H0v-8.77h2.923v2.924H8.77V2.922h2.923v2.923zM32.154 5.845V2.922H29.23v2.923h-2.924V2.922h-2.923v2.923h-2.923v2.923h2.923v2.923h2.923V8.769h5.847v2.923h2.923V5.845z"></path><path fill="#8E55FF" d="M20.464 8.77h-5.847v2.923h5.847z"></path><path fill="#6A2DE0" d="M8.77 0v5.846H2.923V2.923H0V0zM26.309 0v5.846h2.923V2.923h2.923v2.923h2.923V0z"></path><path fill="#A577FF" d="M35.079 11.693v5.846h-2.923v-2.923h-2.924v2.923H26.31v-2.923h-2.923v2.923h-5.847v-2.923h-2.923v2.923h-2.923v-2.923H8.77v2.923H2.923v-2.923H0v-2.923h5.846V8.77H8.77v2.923h2.923V8.77h2.923v2.923h5.847V8.77h2.923v2.923h2.923V8.77h5.847v2.923z"></path><path fill="#B9F" d="M11.693 14.617H8.77v2.923h2.923zM17.542 17.54v-2.923h-2.924v2.923h-2.923v2.924h2.923v2.923h5.847v-2.923h2.923V17.54zM32.155 17.54v-2.923h-2.923v2.923h-2.923v5.847h2.923v-2.923h2.923v2.923h2.923V17.54z"></path><path fill="#B9F" d="M26.306 14.617h-2.923v2.923h2.923zM2.923 17.54v-2.923H0v8.77h5.846v-2.923H8.77V17.54z"></path><path fill="#D2BBFF" d="M32.155 23.384v-2.923h-2.923v2.923h-2.923v2.923h2.923v2.924h2.923v-2.924h2.923v-2.923zM5.846 23.384H0v5.8469999999999995h2.923v-2.924h2.923v2.924H8.77v-8.77H5.846z"></path><path fill="#6A2DE0" d="M45.785 6.395h7.2l4.766 6.742h.238l4.767-6.742h7.199v22.253h-7.1V16.533h-.179L58 22.7h-.238l-4.677-6.167h-.179v12.115h-7.1V6.395zM73.781 17.537c0-1.599.308-3.118.914-4.538a12 12 0 0 1 2.502-3.724 11.8 11.8 0 0 1 3.724-2.502c1.42-.616 2.94-.914 4.538-.914s3.118.308 4.538.914q2.13.924 3.724 2.502A11.8 11.8 0 0 1 96.223 13c.616 1.42.914 2.94.914 4.538a11.5 11.5 0 0 1-.914 4.538 12 12 0 0 1-2.502 3.724 11.8 11.8 0 0 1-3.724 2.502c-1.42.616-2.94.914-4.538.914s-3.118-.308-4.538-.914a12 12 0 0 1-3.724-2.502 11.8 11.8 0 0 1-2.502-3.724c-.616-1.42-.914-2.94-.914-4.538m7.01 0q-.002.969.368 1.817a4.8 4.8 0 0 0 1.003 1.49c.427.427.914.754 1.49 1.003a4.5 4.5 0 0 0 1.817.367q.968.002 1.817-.367a4.8 4.8 0 0 0 1.49-1.003 4.7 4.7 0 0 0 1.002-1.49 4.5 4.5 0 0 0 .368-1.817q.002-.968-.368-1.817a4.8 4.8 0 0 0-1.003-1.49 4.7 4.7 0 0 0-1.489-1.003 4.5 4.5 0 0 0-1.817-.367q-.969-.002-1.817.367a4.8 4.8 0 0 0-1.49 1.003 4.7 4.7 0 0 0-1.003 1.49 4.5 4.5 0 0 0-.367 1.817"></path><path fill="#6A2DE0" d="M102.974 17.143 97.066 6.398h7.775l2.006 3.635 2.006-3.635h7.805l-5.909 10.745 6.336 11.509h-7.775l-2.473-4.44-2.433 4.44h-7.775l6.335-11.51zM119.602 6.398h7.536v22.254h-7.536zM131.471 6.398h14.299v5.84h-7.199v2.472h7.1v5.54h-7.1v2.573h7.427v5.839h-14.537V6.407z"></path></svg>